<svg version="1" xmlns="http://www.w3.org/2000/svg" width="933.333" height="933.333" viewBox="0 0 700.000000 700.000000"><path d="M323.5 7.7c-29.6 4.1-58.4 23.1-73.7 48.8-8.9 14.9-13.1 28.9-14.4 48-.2 4.4-1.4 11.5-2.6 15.9-2.1 7.8-16.8 51.5-26.8 79.6-2.8 8-8.2 23.3-12 34-8 22.8-25.8 73.1-32.3 91-6 16.6-19.8 55.2-25.7 72-2.7 7.4-11.3 31.7-19.3 54-19.4 54.2-21.9 62.3-20.8 65.3 1.3 3.2 7.6 9.3 9.8 9.5 4.8.2 16.8-2.2 26-5.3 32-11 63.6-39 92.2-81.9 4.8-7.2 9.1-14 9.4-15 .4-1 1-1.6 1.3-1.4.3.3.7 39.4.9 86.9.2 47.5.6 89.5 1 93.4 1.1 12.7 3.3 20.7 8.8 32 14.5 29.7 37.8 48.3 70.2 56.1 7.8 1.9 27.6 2.7 34.5 1.4 2.5-.5 5.9-1 7.5-1.3 5.8-.9 19.1-5.9 27-10.1 15.4-8.2 27.3-19.1 37.1-34.1 12.6-19.5 15.1-29.9 16.9-72.4.2-5.2.8-9.7 1.2-10.1.4-.4 7.6-3 15.8-5.8 48.2-16.4 87.5-30.6 92.7-33.5 6.2-3.4 6.3-5.5.8-21.3-7.7-22.4-29.7-79.7-81.2-212.2l-30-77.2.4-20.4c.2-11.3.7-20.8 1.1-21.2.9-1 47.3 34.4 67.5 51.6l5.3 4.5-.5 13c-.3 7.1-.9 18.8-1.3 26-.9 17.8-.7 29.2.7 32.5 2.1 5.1 10.9 6.7 16.4 3.1 3.6-2.4 12.7-12.2 29.1-31.5 2.8-3.3 5.5-6.4 6-7 .6-.6 7-8.3 14.4-17.1 7.3-8.8 14.1-16.9 15.1-18.1.9-1.2 4.3-5.5 7.5-9.7 4.9-6.6 5.6-8 5-10.7-1.5-6.7-9.5-12.1-14.9-10.1-3.1 1.2-9.6 7.7-22.6 22.6-6.3 7.1-11.6 13.2-11.9 13.5-.4.3-4.6 5.1-9.5 10.7-4.8 5.7-9 10.3-9.1 10.3-.2 0-.2-3.3.1-7.3.3-3.9.6-12.2.8-18.2.3-11.6-.4-14.5-4.3-17.7-10.7-9-46.6-37.3-71.1-56.1-8-6.1-15-11.6-15.6-12.2-.6-.5-2.7-2.1-4.7-3.5l-3.7-2.5-.1-16c-.1-22.6-.9-31.2-4.1-42-2.5-8.7-9.3-23.2-14-30-.4-.5-3.3-4.1-6.5-7.9-13.8-16.7-35.7-29.2-59.8-34.1-3.7-.8-25.9-1.3-30-.8zm23.3 24.8c23.9 2.5 45.8 16.4 56.8 36.2 6.3 11.3 7.1 15.4 8.1 44.8.9 23.7.9 446.6.1 477.1-.6 19.2-.9 21.7-3.3 29-7.9 23.7-25.5 39.7-50.9 46-8.8 2.2-29.4 2.7-38.6.9-19.7-3.9-35.4-14.4-47-31.6-6.3-9.2-8.2-14.9-9.5-28.4-2.3-23.9-2.4-496.8-.1-513.5 1.5-11.2 2-13.7 3.3-16.9 9.5-23.2 34.6-41.2 60.8-43.7 3.3-.3 6.1-.7 6.2-.8.3-.3 5.5.1 14.1.9zM234.5 231.1c.2 17.3.4 54.2.5 82l.1 50.5-2.4 5.5c-15 33.7-31.4 61.4-48.7 82.4-5.4 6.5-21.9 22.5-28 27.2-10.2 7.8-24.2 16.3-26.9 16.3-.6 0 1.9-8.4 5.5-18.7 14.6-41.8 46.9-133.1 52.4-148.3 2.1-5.8 7.7-21.5 12.4-35 4.8-13.5 9.6-26.8 10.6-29.5 2.9-7.9 5.7-15.7 12.1-34 8.1-22.9 11-30.7 11.5-30.2.2.2.6 14.5.9 31.8zM447.4 308c3.7 9.6 7.6 19.5 8.6 22 20.1 49.6 67 173.2 67 176.6 0 .8-1.2 1.9-2.7 2.6-1.6.6-4.1 1.6-5.8 2.3-2.9 1.2-12.8 4.7-54.2 19-10.6 3.6-19.7 6.4-20.2 6-.5-.3-1-1.3-1.1-2.3-.3-4.1-.5-223.8-.2-234.1.2-6.2.7-11 1.1-10.5.5.5 3.8 8.8 7.5 18.4z"/><path d="M327.3 59.1c-17.4 3.3-34.1 19.3-39.1 37.5-5.1 18.5 1.2 35.9 18.3 50.1 13.2 11 29 14.6 43.2 9.9 15.7-5.2 31.8-21.5 35.3-35.6 1.6-6.6 1.8-17.8.5-23.6-3.5-15.4-18.1-30.9-34.3-36.5-6.4-2.2-17.5-3.1-23.9-1.8zm22.4 26.7c10.3 5.3 14.8 19.1 10.6 32.2-.9 2.9-3 6.6-4.7 8.3-9.2 9.1-26.4 9.7-36.3 1.3-5.4-4.7-7.5-10.1-7.5-19.7 0-12.5 3.4-18.1 14.4-22.8 6-2.6 17.7-2.3 23.5.7zM324.9 533.2c0 2.4-.1 10.7-.1 18.5V566l-2.6.1c-1.5 0-10.2.1-19.4.1H286v25.4l18.3-.1c10 0 18.7.1 19.4.3.8.2 1.1 5.6 1.1 18.4 0 9.9.2 18.2.5 18.4.8.8 18 1.1 20.7.4l2.5-.6.1-17.6c0-9.6.3-17.9.6-18.4.4-.5 8.9-.9 19.2-.8 18.1 0 18.6 0 18.7-2 .1-2.6.1-20.6 0-22.3-.1-.9-4.1-1.2-15.3-1.2h-19.3l-4-.1.1-18.5.1-18.5H325l-.1 4.2zM456.5 477l-5.1.5V502l3.3.1c1.8 0 4.9.1 6.8.1 1.9 0 6.2-.1 9.5-.1l6-.1v-25l-3.2-.1c-1.8 0-5.3-.1-7.8-.2s-6.8 0-9.5.3z"/></svg>