<?xml version="1.0" encoding="iso-8859-1"?>
<svg version="1.1" id="Layer_1" xmlns="http://www.w3.org/2000/svg" xmlns:xlink="http://www.w3.org/1999/xlink" x="0px" y="0px"
	 viewBox="0 0 512 512" style="enable-background:new 0 0 512 512;" xml:space="preserve">
<path style="fill:#EB6836;" d="M446.234,503.847H65.766c-9.005,0-16.306-7.301-16.306-16.306v-2.174
	c0-9.005,7.301-16.306,16.306-16.306h380.467c9.005,0,16.306,7.301,16.306,16.306v2.174
	C462.539,496.547,455.239,503.847,446.234,503.847z"/>
<path style="fill:#C74B38;" d="M65.766,469.062c-9.005,0-16.306,7.301-16.306,16.306v2.174c0,9.005,7.301,16.306,16.306,16.306
	h116.858v-34.786H65.766z"/>
<rect x="356.552" y="469.062" style="fill:#FD9D7E;" width="56.527" height="34.786"/>
<path style="fill:#EB6836;" d="M265.255,8.153h-18.511c-7.368,0-13.82,4.941-15.742,12.053L110.335,466.888h291.329L280.997,20.206
	C279.076,13.094,272.623,8.153,265.255,8.153z"/>
<g>
	<polygon style="fill:#F2F2F2;" points="204.6,117.945 190.504,170.123 321.496,170.123 307.4,117.945 	"/>
	<polygon style="fill:#F2F2F2;" points="124.725,413.622 110.335,466.888 401.665,466.888 387.275,413.622 	"/>
</g>
<polygon style="fill:#CCCCCC;" points="116.796,442.972 110.335,466.888 401.665,466.888 395.204,442.972 "/>
<path style="fill:#F2F2F2;" d="M472.323,384.272H39.677c-9.005,0-16.306-7.301-16.306-16.306V213.605
	c0-9.005,7.301-16.306,16.306-16.306h432.645c9.005,0,16.306,7.301,16.306,16.306v154.361
	C488.628,376.971,481.328,384.272,472.323,384.272z"/>
<g>
	<path style="fill:#CCCCCC;" d="M488.628,213.605c0-9.005-7.301-16.306-16.306-16.306H39.677c-9.005,0-16.306,7.301-16.306,16.306
		v34.242h465.257V213.605z"/>
	<path style="fill:#CCCCCC;" d="M23.372,334.268v33.698c0,9.005,7.301,16.306,16.306,16.306h432.645
		c9.005,0,16.306-7.301,16.306-16.306v-33.698H23.372z"/>
</g>
<path style="fill:#F7D04A;" d="M488.628,213.605c0-9.005-7.301-16.306-16.306-16.306H39.677c-9.005,0-16.306,7.301-16.306,16.306
	v15.944h465.257V213.605z"/>
<g>
	<polygon style="fill:#666666;" points="420.796,197.299 388.547,229.549 437.742,229.549 469.99,197.299 	"/>
	<polygon style="fill:#666666;" points="303.888,197.299 271.638,229.549 320.833,229.549 353.082,197.299 	"/>
	<polygon style="fill:#666666;" points="186.98,197.299 154.731,229.549 203.925,229.549 236.174,197.299 	"/>
	<polygon style="fill:#666666;" points="70.072,197.299 37.823,229.549 87.017,229.549 119.267,197.299 	"/>
</g>
<path style="fill:#F7D04A;" d="M23.372,367.966c0,9.005,7.301,16.306,16.306,16.306h432.645c9.005,0,16.306-7.301,16.306-16.306
	v-15.944H23.372V367.966z"/>
<g>
	<polygon style="fill:#666666;" points="91.204,384.272 123.453,352.022 74.258,352.022 42.01,384.272 	"/>
	<polygon style="fill:#666666;" points="208.112,384.272 240.362,352.022 191.167,352.022 158.918,384.272 	"/>
	<polygon style="fill:#666666;" points="325.02,384.272 357.27,352.022 308.075,352.022 275.826,384.272 	"/>
	<polygon style="fill:#666666;" points="441.928,384.272 474.177,352.022 424.983,352.022 392.733,384.272 	"/>
</g>
<path d="M173.384,256.544c-4.504,0-8.153,3.65-8.153,8.153v39.134c0,2.697-2.195,4.892-4.892,4.892
	c-2.697,0-4.892-2.195-4.892-4.892v-39.134c0-4.503-3.649-8.153-8.153-8.153s-8.153,3.65-8.153,8.153v39.134
	c0,11.688,9.51,21.197,21.197,21.197c11.688,0,21.197-9.509,21.197-21.197v-39.134C181.537,260.194,177.888,256.544,173.384,256.544
	z"/>
<path d="M225.563,256.544c-4.504,0-8.153,3.65-8.153,8.153v17.642l-10.644-21.288c-1.691-3.382-5.479-5.159-9.166-4.288
	c-3.679,0.869-6.279,4.153-6.279,7.934v52.178c0,4.503,3.649,8.153,8.153,8.153c4.504,0,8.153-3.65,8.153-8.153v-17.642
	l10.644,21.288c1.403,2.808,4.256,4.508,7.29,4.508c0.621,0,1.249-0.072,1.876-0.22c3.679-0.869,6.279-4.153,6.279-7.934v-52.178
	C233.716,260.194,230.066,256.544,225.563,256.544z"/>
<path d="M261.435,256.544h-9.783c-4.504,0-8.153,3.65-8.153,8.153v52.178c0,4.503,3.649,8.153,8.153,8.153h9.783
	c13.486,0,24.459-10.972,24.459-24.459v-19.567C285.894,267.515,274.921,256.544,261.435,256.544z M269.588,300.569
	c0,4.496-3.657,8.153-8.153,8.153h-1.631v-35.873h1.631c4.496,0,8.153,3.657,8.153,8.153V300.569z"/>
<path d="M329.919,272.849c4.504,0,8.153-3.65,8.153-8.153c0-4.503-3.649-8.153-8.153-8.153H303.83c-4.504,0-8.153,3.65-8.153,8.153
	v52.178c0,4.503,3.649,8.153,8.153,8.153h26.089c4.504,0,8.153-3.65,8.153-8.153s-3.649-8.153-8.153-8.153h-17.936v-9.783h17.936
	c4.504,0,8.153-3.65,8.153-8.153s-3.649-8.153-8.153-8.153h-17.936v-9.783H329.919z"/>
<path d="M390.251,290.786v-9.783c0-13.487-10.973-24.459-24.459-24.459h-9.783c-4.504,0-8.153,3.65-8.153,8.153v52.178
	c0,4.503,3.649,8.153,8.153,8.153c4.504,0,8.153-3.65,8.153-8.153V298.92c0.179,0.012,0.361,0.018,0.544,0.018h0.57
	c-0.096,1.4,0.162,2.843,0.835,4.189l8.696,17.393c1.427,2.857,4.308,4.508,7.298,4.508c1.225,0,2.469-0.277,3.641-0.862
	c4.026-2.013,5.659-6.91,3.646-10.938l-7.148-14.298C386.677,298.854,390.251,295.24,390.251,290.786z M364.161,282.651v-9.802
	h1.631c4.496,0,8.153,3.657,8.153,8.153v1.631h-9.24C364.522,282.633,364.341,282.638,364.161,282.651z"/>
<path d="M472.323,189.146H403.11L306.091,81.837L288.867,18.08C285.992,7.434,276.282,0,265.256,0h-18.511
	c-11.027,0-20.735,7.434-23.612,18.08l-17.224,63.758L108.89,189.146H39.677c-13.486,0-24.459,10.972-24.459,24.459v33.699
	c0,4.503,3.649,8.153,8.153,8.153s8.153-3.65,8.153-8.153v-9.602h448.951v106.169H31.524v-53.085c0-4.503-3.649-8.153-8.153-8.153
	s-8.153,3.65-8.153,8.153v77.18c0,13.487,10.973,24.459,24.459,24.459h82.329l-18.5,68.484H65.766
	c-13.486,0-24.459,10.972-24.459,24.459v2.174c0,13.487,10.973,24.459,24.459,24.459h272.849c4.504,0,8.153-3.65,8.153-8.153
	c0-4.503-3.649-8.153-8.153-8.153H65.766c-4.496,0-8.153-3.657-8.153-8.153v-2.174c0-4.496,3.657-8.153,8.153-8.153h380.467
	c4.496,0,8.153,3.657,8.153,8.153v2.174c0,4.496-3.657,8.153-8.153,8.153h-64.136c-4.504,0-8.153,3.65-8.153,8.153
	c0,4.503,3.649,8.153,8.153,8.153h64.136c13.486,0,24.459-10.972,24.459-24.459v-2.174c0-13.487-10.973-24.459-24.459-24.459
	h-37.739l-18.5-68.484h82.329c13.486,0,24.459-10.972,24.459-24.459V213.605C496.781,200.118,485.809,189.146,472.323,189.146z
	 M340.517,221.396l15.944-15.944h44.653l-15.944,15.944L340.517,221.396L340.517,221.396z M223.608,221.396l15.944-15.944h44.653
	l-15.943,15.944L223.608,221.396L223.608,221.396z M193.81,189.146l2.937-10.87h118.508l2.937,10.87H193.81z M106.7,221.396
	l15.944-15.944h44.653l-15.944,15.944L106.7,221.396L106.7,221.396z M210.843,126.098h90.314l9.691,35.873H201.152L210.843,126.098z
	 M296.753,109.792h-81.507l5.382-19.922L256,50.747l35.371,39.123L296.753,109.792z M381.128,189.146h-46.047l-19.622-72.636
	L381.128,189.146z M238.874,22.332c0.959-3.548,4.195-6.027,7.87-6.027h18.511c3.675,0,6.911,2.478,7.87,6.027l8.878,32.864
	l-19.956-22.074c-3.188-3.527-8.907-3.527-12.096,0l-19.956,22.073L238.874,22.332z M176.919,189.146h-46.047l65.67-72.636
	L176.919,189.146z M39.677,205.452h10.712l-15.944,15.944h-2.921v-7.791C31.524,209.109,35.181,205.452,39.677,205.452z
	 M57.505,221.396l15.944-15.944h26.135L83.64,221.396L57.505,221.396L57.505,221.396z M174.413,221.396l15.944-15.944h26.135
	l-15.943,15.944L174.413,221.396L174.413,221.396z M291.322,221.396l15.943-15.944H333.4l-15.944,15.944L291.322,221.396
	L291.322,221.396z M408.229,221.396l15.944-15.944h26.135l-15.944,15.944L408.229,221.396L408.229,221.396z M457.425,221.396
	l15.879-15.879c4.034,0.487,7.172,3.924,7.172,8.088v7.791L457.425,221.396L457.425,221.396z M344.703,376.119l15.944-15.944H405.3
	l-15.944,15.944H344.703z M337.587,360.175l-15.944,15.944h-26.135l15.943-15.944H337.587z M227.795,376.119l15.943-15.944h44.653
	l-15.943,15.944H227.795z M220.679,360.175l-15.943,15.944H178.6l15.944-15.944H220.679z M110.888,376.119l15.944-15.944h44.653
	l-15.945,15.944H110.888z M31.524,360.175h23.051l-15.879,15.879c-4.034-0.486-7.172-3.924-7.172-8.088V360.175z M61.692,376.119
	l15.944-15.944h26.135l-15.944,15.944H61.692z M391.017,458.735H120.983l9.985-36.96h250.066L391.017,458.735z M376.628,405.469
	H135.372l3.524-13.045h234.209L376.628,405.469z M412.417,376.119l15.944-15.944h26.135l-15.944,15.944H412.417z M472.323,376.119
	h-10.712l15.944-15.944h2.921v7.791C480.476,372.462,476.819,376.119,472.323,376.119z"/>
</svg>
